<svg xmlns="http://www.w3.org/2000/svg" version="1.1" width="325" height="325" viewBox="0 0 325 325"><defs><clipPath id="clip-1"><rect x="0" y="24.999999999999986" width="300" height="300"/></clipPath><clipPath id="clip-2"><rect x="0" y="24.999999999999986" width="300" height="300" transform=""/></clipPath><clipPath id="clip-3"><rect x="0" y="24.999999999999986" width="300" height="300" transform="rotate(90 28.022727272727273 26.050008322975827)"/></clipPath></defs><path fill="none" stroke="#000000" d="M 0,325 L 0,25" style="stroke-width: 2px;opacity: 0.1" stroke-width="2" opacity="0.1"/><path fill="none" stroke="#000000" d="M 27.2727,325 L 27.2727,25" style="stroke-width: 2px;opacity: 0.1" stroke-width="2" opacity="0.1"/><path fill="none" stroke="#000000" d="M 54.5455,325 L 54.5455,25" style="stroke-width: 2px;opacity: 0.1" stroke-width="2" opacity="0.1"/><path fill="none" stroke="#000000" d="M 81.8182,325 L 81.8182,25" style="stroke-width: 2px;opacity: 0.1" stroke-width="2" opacity="0.1"/><path fill="none" stroke="#000000" d="M 109.091,325 L 109.091,25" style="stroke-width: 2px;opacity: 0.1" stroke-width="2" opacity="0.1"/><path fill="none" stroke="#000000" d="M 136.364,325 L 136.364,25" style="stroke-width: 2px;opacity: 0.1" stroke-width="2" opacity="0.1"/><path fill="none" stroke="#000000" d="M 163.636,325 L 163.636,25" style="stroke-width: 2px;opacity: 0.1" stroke-width="2" opacity="0.1"/><path fill="none" stroke="#000000" d="M 190.909,325 L 190.909,25" style="stroke-width: 2px;opacity: 0.1" stroke-width="2" opacity="0.1"/><path fill="none" stroke="#000000" d="M 218.182,325 L 218.182,25" style="stroke-width: 2px;opacity: 0.1" stroke-width="2" opacity="0.1"/><path fill="none" stroke="#000000" d="M 245.455,325 L 245.455,25" style="stroke-width: 2px;opacity: 0.1" stroke-width="2" opacity="0.1"/><path fill="none" stroke="#000000" d="M 272.727,325 L 272.727,25" style="stroke-width: 2px;opacity: 0.1" stroke-width="2" opacity="0.1"/><path fill="none" stroke="#000000" d="M 300,325 L 300,25" style="stroke-width: 2px;opacity: 0.1" stroke-width="2" opacity="0.1"/><path fill="none" stroke="#000000" d="M 0,325 L 300,325" style="stroke-width: 2px;opacity: 0.1" stroke-width="2" opacity="0.1"/><path fill="none" stroke="#000000" d="M 0,297.727 L 300,297.727" style="stroke-width: 2px;opacity: 0.1" stroke-width="2" opacity="0.1"/><path fill="none" stroke="#000000" d="M 0,270.455 L 300,270.455" style="stroke-width: 2px;opacity: 0.1" stroke-width="2" opacity="0.1"/><path fill="none" stroke="#000000" d="M 0,243.182 L 300,243.182" style="stroke-width: 2px;opacity: 0.1" stroke-width="2" opacity="0.1"/><path fill="none" stroke="#000000" d="M 0,215.909 L 300,215.909" style="stroke-width: 2px;opacity: 0.1" stroke-width="2" opacity="0.1"/><path fill="none" stroke="#000000" d="M 0,188.636 L 300,188.636" style="stroke-width: 2px;opacity: 0.1" stroke-width="2" opacity="0.1"/><path fill="none" stroke="#000000" d="M 0,161.364 L 300,161.364" style="stroke-width: 2px;opacity: 0.1" stroke-width="2" opacity="0.1"/><path fill="none" stroke="#000000" d="M 0,134.091 L 300,134.091" style="stroke-width: 2px;opacity: 0.1" stroke-width="2" opacity="0.1"/><path fill="none" stroke="#000000" d="M 0,106.818 L 300,106.818" style="stroke-width: 2px;opacity: 0.1" stroke-width="2" opacity="0.1"/><path fill="none" stroke="#000000" d="M 0,79.5455 L 300,79.5455" style="stroke-width: 2px;opacity: 0.1" stroke-width="2" opacity="0.1"/><path fill="none" stroke="#000000" d="M 0,52.2727 L 300,52.2727" style="stroke-width: 2px;opacity: 0.1" stroke-width="2" opacity="0.1"/><path fill="none" stroke="#000000" d="M 0,25 L 300,25" style="stroke-width: 2px;opacity: 0.1" stroke-width="2" opacity="0.1"/><path fill="none" stroke="#000000" d="M -3.45,303.327 C -3.1,301.227 0.749999,298.077 1.8,297.727 C 0.749999,297.377 -3.1,294.227 -3.45,292.127" transform="rotate(180 1.7999993064186803 297.7272727272727)" style="stroke-width: 2px;opacity: 1;stroke-linejoin: round;stroke-linecap: round" stroke-width="2" opacity="1" stroke-linejoin="round" stroke-linecap="round"/><path fill="none" stroke="#000000" d="M 27.2727,297.727 S 27.2727,297.727 1.05,297.727" style="stroke-width: 2px;opacity: 1" stroke-width="2" opacity="1"/><path fill="none" stroke="#000000" d="M 294.45,303.327 C 294.8,301.227 298.65,298.077 299.7,297.727 C 298.65,297.377 294.8,294.227 294.45,292.127" transform="" style="stroke-width: 2px;opacity: 1;stroke-linejoin: round;stroke-linecap: round" stroke-width="2" opacity="1" stroke-linejoin="round" stroke-linecap="round"/><path fill="none" stroke="#000000" d="M 27.2727,297.727 S 27.2727,297.727 298.95,297.727" style="stroke-width: 2px;opacity: 1" stroke-width="2" opacity="1"/><path fill="none" stroke="#000000" d="M 22.7727,329.55 C 23.1227,327.45 26.9727,324.3 28.0227,323.95 C 26.9727,323.6 23.1227,320.45 22.7727,318.35" transform="rotate(90 28.022727272727273 323.9500083229758)" style="stroke-width: 2px;opacity: 1;stroke-linejoin: round;stroke-linecap: round" stroke-width="2" opacity="1" stroke-linejoin="round" stroke-linecap="round"/><path fill="none" stroke="#000000" d="M 27.2727,297.727 S 27.2727,297.727 27.2727,323.95" style="stroke-width: 2px;opacity: 1" stroke-width="2" opacity="1"/><path fill="none" stroke="#000000" d="M 22.7727,31.65 C 23.1227,29.55 26.9727,26.4 28.0227,26.05 C 26.9727,25.7 23.1227,22.55 22.7727,20.45" transform="rotate(-90 28.022727272727273 26.050008322975827)" style="stroke-width: 2px;opacity: 1;stroke-linejoin: round;stroke-linecap: round" stroke-width="2" opacity="1" stroke-linejoin="round" stroke-linecap="round"/><path fill="none" stroke="#000000" d="M 27.2727,297.727 S 27.2727,297.727 27.2727,26.05" style="stroke-width: 2px;opacity: 1" stroke-width="2" opacity="1"/><path fill="none" stroke="#000000" d="M 54.5455,302.727 L 54.5455,292.727" style="stroke-width: 1px;opacity: 1" stroke-width="1" opacity="1"/><path fill="none" stroke="#000000" d="M 81.8182,302.727 L 81.8182,292.727" style="stroke-width: 1px;opacity: 1" stroke-width="1" opacity="1"/><path fill="none" stroke="#000000" d="M 109.091,302.727 L 109.091,292.727" style="stroke-width: 1px;opacity: 1" stroke-width="1" opacity="1"/><path fill="none" stroke="#000000" d="M 136.364,302.727 L 136.364,292.727" style="stroke-width: 1px;opacity: 1" stroke-width="1" opacity="1"/><path fill="none" stroke="#000000" d="M 163.636,302.727 L 163.636,292.727" style="stroke-width: 1px;opacity: 1" stroke-width="1" opacity="1"/><path fill="none" stroke="#000000" d="M 190.909,302.727 L 190.909,292.727" style="stroke-width: 1px;opacity: 1" stroke-width="1" opacity="1"/><path fill="none" stroke="#000000" d="M 218.182,302.727 L 218.182,292.727" style="stroke-width: 1px;opacity: 1" stroke-width="1" opacity="1"/><path fill="none" stroke="#000000" d="M 245.455,302.727 L 245.455,292.727" style="stroke-width: 1px;opacity: 1" stroke-width="1" opacity="1"/><path fill="none" stroke="#000000" d="M 272.727,302.727 L 272.727,292.727" style="stroke-width: 1px;opacity: 1" stroke-width="1" opacity="1"/><path fill="none" stroke="#000000" d="M 22.2727,270.455 L 32.2727,270.455" style="stroke-width: 1px;opacity: 1" stroke-width="1" opacity="1"/><path fill="none" stroke="#000000" d="M 22.2727,243.182 L 32.2727,243.182" style="stroke-width: 1px;opacity: 1" stroke-width="1" opacity="1"/><path fill="none" stroke="#000000" d="M 22.2727,215.909 L 32.2727,215.909" style="stroke-width: 1px;opacity: 1" stroke-width="1" opacity="1"/><path fill="none" stroke="#000000" d="M 22.2727,188.636 L 32.2727,188.636" style="stroke-width: 1px;opacity: 1" stroke-width="1" opacity="1"/><path fill="none" stroke="#000000" d="M 22.2727,161.364 L 32.2727,161.364" style="stroke-width: 1px;opacity: 1" stroke-width="1" opacity="1"/><path fill="none" stroke="#000000" d="M 22.2727,134.091 L 32.2727,134.091" style="stroke-width: 1px;opacity: 1" stroke-width="1" opacity="1"/><path fill="none" stroke="#000000" d="M 22.2727,106.818 L 32.2727,106.818" style="stroke-width: 1px;opacity: 1" stroke-width="1" opacity="1"/><path fill="none" stroke="#000000" d="M 22.2727,79.5455 L 32.2727,79.5455" style="stroke-width: 1px;opacity: 1" stroke-width="1" opacity="1"/><path fill="none" stroke="#000000" d="M 22.2727,52.2727 L 32.2727,52.2727" style="stroke-width: 1px;opacity: 1" stroke-width="1" opacity="1"/><path fill="none" stroke="#11accd" d="M 294.45,303.327 C 294.8,301.227 298.65,298.077 299.7,297.727 C 298.65,297.377 294.8,294.227 294.45,292.127" transform="" style="stroke-width: 2px;stroke-linejoin: round;stroke-linecap: round" stroke-width="2" clip-path="url(#clip-2)" stroke-linejoin="round" stroke-linecap="round"/><path fill="none" stroke="#11accd" d="M 27.2727,297.727 S 27.2727,297.727 298.95,297.727" style="stroke-width: 2px" stroke-width="2" clip-path="url(#clip-1)"/><path fill="none" stroke="#1fab54" d="M 22.7727,31.65 C 23.1227,29.55 26.9727,26.4 28.0227,26.05 C 26.9727,25.7 23.1227,22.55 22.7727,20.45" transform="rotate(-90 28.022727272727273 26.050008322975827)" style="stroke-width: 2px;stroke-linejoin: round;stroke-linecap: round" stroke-width="2" clip-path="url(#clip-3)" stroke-linejoin="round" stroke-linecap="round"/><path fill="none" stroke="#1fab54" d="M 27.2727,297.727 S 27.2727,297.727 27.2727,26.05" style="stroke-width: 2px" stroke-width="2" clip-path="url(#clip-1)"/></svg>